<svg width="588" height="568" viewBox="0 0 588 568" fill="none" xmlns="http://www.w3.org/2000/svg">
<path opacity="0.4" d="M334.958 255.344C327.748 251.178 322.573 251.093 319.435 255.004C316.211 258.915 314.684 265.546 314.684 274.812V324.969C314.684 334.49 313.836 342.396 312.054 348.687C310.273 355.233 307.304 359.824 303.232 362.544C299.245 365.35 293.816 366.03 286.945 364.755C280.244 363.564 271.846 359.994 261.836 354.213L257.086 351.408V311.877L263.109 315.363C270.319 319.528 275.069 320.038 277.445 317.063C279.99 314.087 281.262 307.967 281.262 298.7V254.494C281.262 242.932 282.365 233.836 284.655 227.205C286.861 220.489 291.356 216.238 298.058 214.368C291.356 204.762 286.861 195.24 284.655 185.974C282.45 176.708 281.347 166.336 281.347 154.775V110.568C281.347 101.302 280.074 93.651 277.529 87.7851C275.154 82.0043 270.319 76.9886 263.194 72.823L257.171 69.3375V29.8069L261.921 32.6123C271.931 38.3931 280.329 44.599 287.03 51.1449C293.901 57.7759 299.33 64.7469 303.317 72.2279C307.474 79.709 310.443 87.7001 312.139 96.2864C313.921 104.618 314.769 113.544 314.769 123.065V173.222C314.769 182.489 316.381 190.99 319.519 198.556C322.743 206.122 327.917 212.073 335.043 216.153L334.958 255.344Z" fill="url(#paint0_linear_26_82)"/>
<path opacity="0.4" d="M153.256 110.058C160.467 114.224 165.641 114.309 168.78 110.398C172.003 106.488 173.53 99.8568 173.53 90.5905V40.4334C173.53 30.912 174.378 23.0059 176.16 16.715C177.941 10.169 180.825 5.57839 184.812 2.77299C188.969 0.0526013 194.398 -0.627496 201.099 0.562674C207.97 1.83786 216.453 5.40837 226.463 11.2742L231.213 14.0796V53.6102L225.19 50.1247C217.98 45.9591 213.145 45.3641 210.6 48.3395C208.225 51.3999 207.037 57.5208 207.037 66.8721V111.078C207.037 122.555 205.934 131.736 203.644 138.367C201.438 145.083 196.943 149.334 190.241 151.204C196.943 160.811 201.438 170.332 203.644 179.598C205.85 188.865 206.952 199.236 206.952 210.798V255.004C206.952 264.27 208.14 271.836 210.515 277.702C213.06 283.568 217.895 288.669 225.105 292.749L231.128 296.235V335.766L226.378 332.96C216.368 327.179 207.885 320.888 201.014 314.342C194.313 307.797 188.884 300.826 184.727 293.259C180.74 285.863 177.856 277.872 176.16 269.371C174.378 261.04 173.53 252.114 173.53 242.592V192.435C173.53 183.169 171.918 174.668 168.78 167.101C165.556 159.535 160.382 153.585 153.256 149.504V110.058Z" fill="url(#paint1_linear_26_82)"/>
<path opacity="0.15" d="M359.473 10.9343L538.545 114.564L538.46 544.81L359.388 441.266L359.473 10.9343Z" fill="url(#paint2_linear_26_82)"/>
<path d="M325.797 67.2971L468.308 149.674V189.205L325.797 106.828V67.2971Z" fill="#587298"/>
<path opacity="0.2" d="M382.801 250.329L517.847 328.455V448.067L382.801 369.941V250.329Z" fill="url(#paint3_linear_26_82)"/>
<path opacity="0.15" d="M381.443 158.6L518.525 237.916V251.433L381.443 172.117V158.6Z" fill="white"/>
<path opacity="0.15" d="M381.443 185.804L499.948 254.324V267.841L381.443 199.321V185.804Z" fill="white"/>
<path opacity="0.15" d="M381.443 212.668L482.049 270.816V284.333L381.443 226.185V212.668Z" fill="white"/>
<path opacity="0.2" d="M359.473 10.9343L538.545 114.564V172.202L359.388 68.6576L359.473 10.9343Z" fill="url(#paint4_linear_26_82)"/>
<path opacity="0.2" d="M404.177 66.0221C404.177 74.7784 399.088 78.859 392.81 75.2034C386.533 71.5479 381.443 61.6015 381.443 52.8453C381.443 44.089 386.533 40.0084 392.81 43.6639C399.088 47.3195 404.177 57.3509 404.177 66.0221Z" fill="white"/>
<path opacity="0.15" d="M36.788 142.703L588 461.499L587.915 892L36.7031 573.205L36.788 142.703Z" fill="url(#paint5_linear_26_82)"/>
<path d="M0.227112 248.798L142.653 331.175V370.705L0.227112 288.414V248.798Z" fill="#EA8C4F"/>
<path opacity="0.15" d="M73.9421 357.444L390.181 540.39V553.907L73.9421 370.961V357.444Z" fill="white"/>
<path opacity="0.15" d="M73.9421 384.648L346.749 542.43V555.947L73.9421 398.165V384.648Z" fill="white"/>
<path opacity="0.15" d="M73.9421 411.596L306.116 545.915V559.432L73.9421 425.113V411.596Z" fill="white"/>
<path opacity="0.2" d="M22.1971 425.029L253.693 558.923V678.535L22.1971 544.556V425.029Z" fill="url(#paint6_linear_26_82)"/>
<path opacity="0.15" d="M45.5247 469.15L229.432 575.5V589.017L45.5247 482.667V469.15Z" fill="white"/>
<path opacity="0.15" d="M45.5247 496.354L192.786 581.536V595.053L45.5247 509.785V496.354Z" fill="white"/>
<path opacity="0.2" d="M36.7877 142.703L587.236 461.159V519.477L36.7877 201.106V142.703Z" fill="url(#paint7_linear_26_82)"/>
<path opacity="0.2" d="M96.7614 206.547C96.7614 215.304 91.6717 219.384 85.3944 215.729C79.1171 212.073 74.0275 202.127 74.0275 193.37C74.0275 184.614 79.1171 180.534 85.3944 184.189C91.6717 187.845 96.7614 197.876 96.7614 206.547Z" fill="white"/>
<defs>
<linearGradient id="paint0_linear_26_82" x1="383.787" y1="17.8759" x2="244.401" y2="258.987" gradientUnits="userSpaceOnUse">
<stop stop-color="#424C57"/>
<stop offset="0.903" stop-color="white" stop-opacity="0"/>
</linearGradient>
<linearGradient id="paint1_linear_26_82" x1="303.577" y1="1.51234" x2="164.176" y2="242.593" gradientUnits="userSpaceOnUse">
<stop stop-color="#414B56"/>
<stop offset="0.903" stop-color="white" stop-opacity="0"/>
</linearGradient>
<linearGradient id="paint2_linear_26_82" x1="541.912" y1="116.519" x2="370.125" y2="413.497" gradientUnits="userSpaceOnUse">
<stop stop-color="white"/>
<stop offset="1" stop-color="white" stop-opacity="0"/>
</linearGradient>
<linearGradient id="paint3_linear_26_82" x1="476.183" y1="304.285" x2="428.438" y2="386.823" gradientUnits="userSpaceOnUse">
<stop stop-color="white"/>
<stop offset="1" stop-color="white" stop-opacity="0"/>
</linearGradient>
<linearGradient id="paint4_linear_26_82" x1="420.87" y1="11.8282" x2="475.681" y2="166.667" gradientUnits="userSpaceOnUse">
<stop stop-color="#424C58"/>
<stop offset="1" stop-color="white" stop-opacity="0"/>
</linearGradient>
<linearGradient id="paint5_linear_26_82" x1="405.351" y1="355.856" x2="314.359" y2="513.198" gradientUnits="userSpaceOnUse">
<stop stop-color="white"/>
<stop offset="1" stop-color="white" stop-opacity="0"/>
</linearGradient>
<linearGradient id="paint6_linear_26_82" x1="163.773" y1="506.882" x2="116.028" y2="589.421" gradientUnits="userSpaceOnUse">
<stop stop-color="#434D58"/>
<stop offset="1" stop-color="white" stop-opacity="0"/>
</linearGradient>
<linearGradient id="paint7_linear_26_82" x1="173.366" y1="95.7139" x2="383.049" y2="450.136" gradientUnits="userSpaceOnUse">
<stop stop-color="#546F94"/>
<stop offset="1" stop-color="white" stop-opacity="0"/>
</linearGradient>
</defs>
</svg>
